<svg id="OBJECTS" xmlns="http://www.w3.org/2000/svg" viewBox="0 0 458.11 354.95"><defs><style>.cls-1{fill:#091e54;}.cls-2{fill:#d1d7fa;}.cls-3{fill:#06165c;}.cls-4{font-size:34.78px;font-family:Antonio-Light, Antonio Light;font-weight:300;}.cls-4,.cls-6{fill:#fff;}.cls-5{font-size:32.38px;}.cls-7{fill:#e3e7fa;}.cls-10,.cls-8,.cls-9{fill:none;stroke-miterlimit:10;stroke-width:2px;}.cls-8{stroke:#333d7a;}.cls-8,.cls-9{stroke-linecap:round;}.cls-10,.cls-9{stroke:#fff;}.cls-11{fill:#889efa;}</style></defs><path class="cls-1" d="M601.7,333.67V421.3c0,5.4-5.17,9.78-11.55,9.78H237.07V333.67Z" transform="translate(-143.59 -76.13)"/><rect class="cls-1" x="312.22" y="43.17" width="102" height="102"/><rect class="cls-1" x="421.39" y="174.65" width="22.42" height="22.42"/><rect class="cls-1" x="109.65" width="30.98" height="30.98"/><rect class="cls-1" x="46.9" y="296.52" width="21.08" height="21.08"/><rect class="cls-2" y="210.08" width="89.84" height="57.81"/><rect class="cls-3" y="199.62" width="89.73" height="12.6"/><text class="cls-4" transform="translate(26.49 252.33)">&lt;<tspan class="cls-5" x="20.73" y="0">/</tspan><tspan x="31.83" y="0">&gt;</tspan></text><path class="cls-6" d="M223.81,282.06a2.53,2.53,0,1,0,2.52-2.53A2.52,2.52,0,0,0,223.81,282.06Z" transform="translate(-143.59 -76.13)"/><path class="cls-6" d="M215,282.06a2.53,2.53,0,1,0,2.53-2.53A2.53,2.53,0,0,0,215,282.06Z" transform="translate(-143.59 -76.13)"/><path class="cls-6" d="M206.1,282.06a2.53,2.53,0,1,0,2.53-2.53A2.53,2.53,0,0,0,206.1,282.06Z" transform="translate(-143.59 -76.13)"/><rect class="cls-7" x="345.72" y="69.34" width="46.73" height="46.73"/><line class="cls-8" x1="365.74" y1="95.93" x2="382.11" y2="112.3"/><line class="cls-8" x1="349.79" y1="111.88" x2="365.74" y2="95.93"/><line class="cls-8" x1="380.46" y1="99.33" x2="386.16" y2="105.03"/><line class="cls-8" x1="374.89" y1="104.89" x2="380.46" y2="99.33"/><path class="cls-8" d="M520.85,156a4.72,4.72,0,1,0,4.71-4.71A4.71,4.71,0,0,0,520.85,156Z" transform="translate(-143.59 -76.13)"/><path class="cls-8" d="M361,315.27a4.72,4.72,0,1,0,4.72-4.71A4.71,4.71,0,0,0,361,315.27Z" transform="translate(-143.59 -76.13)"/><path class="cls-8" d="M375,330.64a9.89,9.89,0,0,0-18.44,0" transform="translate(-143.59 -76.13)"/><circle class="cls-3" cx="211.85" cy="232.56" r="19.84" transform="translate(-204.14 -0.93) rotate(-17.65)"/><polygon class="cls-6" points="75.09 156.17 64.3 150 64.35 162.44 75.09 156.17"/><line class="cls-9" x1="357.92" y1="21.04" x2="357.92" y2="36.53"/><line class="cls-9" x1="365.6" y1="28.78" x2="350.1" y2="28.78"/><path class="cls-9" d="M284.22,391.53A4.74,4.74,0,1,0,289,386.8,4.73,4.73,0,0,0,284.22,391.53Z" transform="translate(-143.59 -76.13)"/><circle class="cls-9" cx="336.68" cy="8.83" r="4.73"/><path class="cls-8" d="M228.72,265.38a4.72,4.72,0,1,0,4.71-4.72A4.71,4.71,0,0,0,228.72,265.38Z" transform="translate(-143.59 -76.13)"/><line class="cls-9" x1="292.07" y1="307.16" x2="292.07" y2="322.65"/><line class="cls-9" x1="299.75" y1="314.91" x2="284.26" y2="314.91"/><path class="cls-10" d="M524.12,273.36a5.21,5.21,0,1,1-5.21-5.21A5.22,5.22,0,0,1,524.12,273.36Z" transform="translate(-143.59 -76.13)"/><rect class="cls-3" x="117.44" y="60.69" width="216.2" height="140.64" rx="5.05"/><rect class="cls-2" x="304.81" y="105.04" width="128.64" height="204.2" rx="1.94" transform="translate(432.68 -238.12) rotate(90)"/><rect class="cls-3" x="120.49" y="168.51" width="209.56" height="30.82"/><rect class="cls-7" x="152.15" y="14.45" width="147.05" height="118.25"/><rect class="cls-3" x="152.15" y="4.84" width="147.05" height="16.85"/><path class="cls-6" d="M431,88.8A2.81,2.81,0,1,0,433.82,86,2.81,2.81,0,0,0,431,88.8Z" transform="translate(-143.59 -76.13)"/><circle class="cls-6" cx="279.92" cy="12.68" r="2.81"/><circle class="cls-6" cx="269.62" cy="12.68" r="2.81"/><rect class="cls-11" x="167.86" y="36.63" width="23.38" height="23.38"/><rect class="cls-6" x="202.25" y="36.63" width="81.11" height="23.38"/><rect class="cls-6" x="167.86" y="68.66" width="114.93" height="46.98"/><line class="cls-10" x1="109.11" y1="175.15" x2="333.58" y2="175.15"/><rect class="cls-3" x="172.96" y="218.23" width="98.16" height="10.69" rx="3.77"/><rect class="cls-11" x="152.2" y="132.88" width="147.08" height="35.64"/><line class="cls-9" x1="169.08" y1="144.24" x2="225.32" y2="144.24"/><line class="cls-9" x1="169.08" y1="154.97" x2="283.34" y2="154.97"/><rect class="cls-11" x="179.98" y="201.32" width="84.35" height="16.72"/><line class="cls-8" x1="212.71" y1="47.48" x2="272.14" y2="47.48"/><line class="cls-8" x1="212.71" y1="80.56" x2="272.14" y2="80.56"/><line class="cls-8" x1="212.71" y1="91.9" x2="272.14" y2="91.9"/><line class="cls-8" x1="212.71" y1="103.24" x2="272.14" y2="103.24"/><circle class="cls-8" cx="188.68" cy="91.44" r="9.13"/><path class="cls-3" d="M523.65,256.19a33.56,33.56,0,1,0,33.56,33.56A33.56,33.56,0,0,0,523.65,256.19Zm0,61.12a27.56,27.56,0,1,1,27.56-27.56A27.59,27.59,0,0,1,523.65,317.31Z" transform="translate(-143.59 -76.13)"/><path class="cls-3" d="M526.2,252.79H521a2.46,2.46,0,0,0-2.42,2l-1.25,6.47H529.8l-1.17-6.45A2.48,2.48,0,0,0,526.2,252.79Z" transform="translate(-143.59 -76.13)"/><path class="cls-3" d="M498.38,262.12l-3.67,3.67a2.48,2.48,0,0,0-.3,3.13l3.69,5.45,8.81-8.8-5.39-3.73A2.46,2.46,0,0,0,498.38,262.12Z" transform="translate(-143.59 -76.13)"/><path class="cls-3" d="M485.31,288.4v5.19a2.46,2.46,0,0,0,2,2.42l6.47,1.24V284.81L487.33,286A2.46,2.46,0,0,0,485.31,288.4Z" transform="translate(-143.59 -76.13)"/><path class="cls-3" d="M494.64,316.22l3.67,3.67a2.46,2.46,0,0,0,3.12.3l5.45-3.69-8.8-8.8-3.73,5.38A2.47,2.47,0,0,0,494.64,316.22Z" transform="translate(-143.59 -76.13)"/><path class="cls-3" d="M520.91,329.3h5.19a2.47,2.47,0,0,0,2.42-2l1.25-6.47H517.32l1.17,6.44A2.46,2.46,0,0,0,520.91,329.3Z" transform="translate(-143.59 -76.13)"/><path class="cls-3" d="M548.74,320l3.66-3.66a2.47,2.47,0,0,0,.3-3.13L549,307.72l-8.8,8.8,5.38,3.73A2.46,2.46,0,0,0,548.74,320Z" transform="translate(-143.59 -76.13)"/><path class="cls-3" d="M561.81,293.69V288.5a2.47,2.47,0,0,0-2-2.42l-6.46-1.24v12.44l6.44-1.17A2.46,2.46,0,0,0,561.81,293.69Z" transform="translate(-143.59 -76.13)"/><path class="cls-3" d="M552.48,265.87l-3.67-3.67a2.46,2.46,0,0,0-3.12-.3l-5.46,3.69,8.8,8.8,3.73-5.38A2.46,2.46,0,0,0,552.48,265.87Z" transform="translate(-143.59 -76.13)"/><circle class="cls-10" cx="523.45" cy="290.3" r="17.71" transform="translate(-168.52 454.09) rotate(-52.64)"/></svg>